# This file uses centimeters as units for non-parametric coordinates.

mtllib Throne_Velvet.mtl
g default
v 0.440797 4.348403 -3.664974
v 0.892458 4.348403 -3.229485
v 1.018554 4.192664 -1.611558
v 0.926250 4.192664 -1.519249
v 0.892458 4.348403 -1.753626
v 0.802124 4.348403 -1.659231
v 0.405160 4.422056 -3.670026
v 0.405160 8.016556 -3.670026
v 0.405160 7.649132 -3.468988
v 0.958181 4.192664 -3.135364
v 0.405160 5.315103 -3.670026
v -0.010951 8.016555 -3.670026
v -0.010951 7.649132 -3.468988
v -0.010951 5.315103 -3.670026
v -0.010951 4.422056 -3.670026
v -0.010951 4.192664 -3.804954
v -0.010951 4.348403 -3.664974
v -0.010951 4.348403 -1.659231
v -0.010951 4.192664 -1.519249
v 0.405160 5.704955 -3.592395
v -0.010951 5.704955 -3.592395
v 0.499684 6.877706 -3.468988
v -0.010951 7.145011 -3.425020
v -0.010951 6.512444 -3.476627
v 0.135634 6.892576 -3.464414
v -0.010951 6.647503 -3.493096
v 0.065807 6.891742 -3.475730
v -0.010951 7.026888 -3.475730
v 1.031709 4.192664 -3.374078
v 0.503859 4.192664 -3.804954
v 0.926326 3.904078 -1.519249
v 1.018554 3.904078 -1.611484
v -0.010951 3.904078 -1.519249
v 0.982957 3.910500 -3.110747
v 0.503859 8.133163 -3.804954
v -0.010951 8.133163 -3.804954
v 0.503859 5.205467 -3.804954
v 0.503859 7.722185 -3.804954
v 1.059184 3.911199 -3.273960
v 0.503859 5.631856 -3.804954
v 0.575803 6.877683 -3.804954
v 0.032506 6.890781 -3.475330
v 0.019857 6.856417 -3.483414
v -0.010951 6.838227 -3.490097
v -0.010951 6.932260 -3.477929
v 0.017094 6.917797 -3.475930
vt 0.071537 0.382120
vt 0.136941 0.309313
vt 0.165485 0.334935
vt 0.087427 0.417938
vt 0.186748 0.075196
vt 0.166275 0.091188
vt 0.151979 0.063887
vt 0.157216 0.020974
vt 0.141838 0.113551
vt 0.130077 0.095834
vt 0.002634 0.050973
vt 0.003419 0.000000
vt 0.157863 0.300990
vt 0.182072 0.290756
vt 0.004191 0.086718
vt 0.064820 0.458153
vt 0.068025 0.601309
vt 0.003379 0.599834
vt 0.000434 0.458241
vt 0.002231 0.416245
vt 0.006532 0.969250
vt 0.066993 0.960612
vt 0.088133 0.984122
vt 0.010248 1.000000
vt 0.094882 0.584151
vt 0.054997 0.906216
vt 0.001586 0.909516
vt 0.098159 0.920388
vt 0.183118 0.306283
vt 0.062609 0.660880
vt 0.004531 0.658617
vt 0.094052 0.648844
vt 0.003710 0.383092
vt 0.107645 0.814222
vt 0.064179 0.814729
vt 0.018580 0.815692
vt 0.001652 0.766466
vt 0.000774 0.846284
vt 0.009917 0.815215
vt 0.000511 0.784161
vt 0.000000 0.830733
vt 0.005873 0.815036
vt 0.004041 0.810774
vt 0.000087 0.808657
vt 0.000513 0.819304
vt 0.003921 0.817955
vn 0.027743 0.997613 -0.063234
vn 0.086267 0.995903 -0.027131
vn 0.442418 0.744357 -0.500198
vn 0.442418 0.744357 -0.500198
vn 0.998812 0.039557 0.028465
vn 0.978494 0.202410 0.039742
vn 0.655476 0.383660 0.650504
vn 0.707128 0.000185 0.707085
vn 0.119986 0.992772 0.002513
vn 0.005525 0.997378 0.072160
vn 0.000000 0.218705 0.975791
vn 0.000000 0.288370 0.957519
vn 0.000000 0.000000 1.000000
vn 0.000000 0.000000 1.000000
vn 0.962431 0.271389 0.008647
vn 0.998347 0.056253 0.011777
vn 0.000000 0.997244 0.074195
vn 0.298477 -0.111786 0.947848
vn 0.265468 -0.055965 0.962494
vn 0.000000 -0.060402 0.998174
vn 0.000000 -0.130167 0.991492
vn 0.369140 -0.348050 0.861741
vn 0.000000 -0.506998 0.861947
vn -0.000001 0.577271 0.816553
vn 0.362864 0.500895 0.785770
vn 0.544122 0.526788 0.653013
vn -0.000001 0.756606 0.653871
vn 0.817065 -0.009030 0.576475
vn 0.502920 0.171806 0.847086
vn 0.034824 0.177812 0.983448
vn 0.945740 0.102126 0.308459
vn 0.826266 0.502505 0.254506
vn 0.924595 0.162018 0.344780
vn 0.924595 0.162018 0.344780
vn 0.472216 -0.130538 0.871764
vn 0.027346 -0.130791 0.991033
vn 0.928718 -0.073454 0.363440
vn 0.000000 0.999104 -0.042316
vn 0.000000 0.668478 -0.743732
vn 0.000000 0.668478 -0.743732
vn 0.956863 -0.000587 0.290540
vn 0.533176 -0.043499 0.844885
vn 0.042547 -0.058823 0.997361
vn 0.035950 -0.110292 0.993249
vn 0.051543 0.013124 0.998585
vn -0.277895 0.053969 0.959094
vn -0.277895 0.053969 0.959094
vn -0.252733 0.034891 0.966907
vn -0.272755 0.050058 0.960780
vn -0.325898 -0.279589 0.903117
vn -0.325898 -0.279589 0.903117
vn -0.311294 -0.266046 0.912313
vn -0.291352 -0.247569 0.924026
vn -0.156563 -0.036559 0.986991
vn -0.156563 -0.036559 0.986991
vn -0.156563 -0.036559 0.986991
vn -0.029165 -0.006245 0.999555
vn -0.029165 -0.006245 0.999555
vn -0.029165 -0.006245 0.999555
s 1
usemtl blinn1SG
f 1/1/1 2/2/2 29/3/3 30/4/4
f 32/5/5 3/6/6 4/7/7 31/8/8
f 3/6/6 5/9/9 6/10/10 4/7/7
f 4/7/11 19/11/12 33/12/13 31/8/14
f 10/13/15 3/6/6 32/5/5 34/14/16
f 4/7/11 6/10/10 18/15/17 19/11/12
f 10/13/15 2/2/2 5/9/9 3/6/6
s 4
f 7/16/18 11/17/19 14/18/20 15/19/21
f 30/4/22 7/16/18 15/19/21 16/20/23
f 12/21/24 8/22/25 35/23/26 36/24/27
f 37/25/28 11/17/19 7/16/18 30/4/22
f 9/26/29 8/22/25 12/21/24 13/27/30
f 35/23/26 8/22/25 9/26/29 38/28/31
s 1
f 29/3/32 2/2/2 10/13/15
f 29/3/33 10/13/15 34/14/16 39/29/34
s 4
f 11/17/19 20/30/35 21/31/36 14/18/20
f 40/32/37 20/30/35 11/17/19 37/25/28
s 1
f 17/33/38 1/1/1 30/4/39 16/20/40
f 5/9/9 2/2/2 1/1/1 17/33/38 18/15/17 6/10/10
s 4
f 41/34/41 22/35/42 20/30/35 40/32/37
f 38/28/31 9/26/29 22/35/42 41/34/41
f 21/31/36 20/30/35 22/35/42 25/36/43 24/37/44
f 23/38/45 25/36/43 22/35/42 9/26/29 13/27/30
s 6
f 24/37/46 25/36/47 27/39/48 26/40/49
s 7
f 25/36/50 23/38/51 28/41/52 27/39/53
s 6
f 26/40/49 27/39/48 42/42/54 43/43/55 44/44/56
s 7
f 27/39/53 28/41/52 45/45/57 46/46/58 42/42/59
v 0.553804 4.527182 -3.490819
v 0.553902 5.342014 -3.490073
v 0.855863 4.511681 -3.226494
v 0.894653 5.205228 -3.232133
v 0.554039 7.480864 -3.488936
v 0.554071 7.816514 -3.488664
v 0.996622 7.144147 -3.240734
v 0.996612 7.490238 -3.240787
v 0.906489 5.525050 -3.233852
v 0.553925 5.698838 -3.489847
v 0.941334 6.543456 -3.233156
v 0.602321 6.774848 -3.496225
v 0.523665 5.301693 -3.664415
v 0.523665 4.417861 -3.665239
v 0.893109 4.401046 -3.331730
v 0.947229 5.153325 -3.331897
v 0.529738 7.952804 -3.662859
v 0.541868 7.621667 -3.663158
v 1.075957 7.252067 -3.332150
v 1.075957 7.552610 -3.332212
v 0.523665 5.688735 -3.664164
v 0.963745 5.500229 -3.331948
v 0.597918 6.855863 -3.663661
v 0.998839 6.600502 -3.332050
vt 0.904806 0.097086
vt 0.906011 0.014171
vt 0.943340 0.013997
vt 0.950701 0.081976
vt 0.910274 0.355796
vt 0.907106 0.325321
vt 0.957911 0.289912
vt 0.956697 0.324072
vt 0.951654 0.116676
vt 0.904825 0.135154
vt 0.953848 0.226242
vt 0.907442 0.251168
vt 0.885756 0.092757
vt 0.888914 0.000000
vt 0.948482 0.000550
vt 0.962921 0.075698
vt 0.903307 0.375683
vt 0.889310 0.341192
vt 0.970655 0.301713
vt 0.964709 0.334443
vt 0.885849 0.134361
vt 0.963861 0.113963
vt 0.889429 0.259981
vt 0.966173 0.232255
vn -0.779283 0.011488 0.626566
vn -0.796477 -0.111366 0.594325
vn -0.331499 -0.118939 0.935928
vn -0.426806 0.006607 0.904319
vn -0.431320 0.447853 0.783193
vn -0.763057 -0.022927 0.645924
vn -0.317992 -0.014773 0.947978
vn -0.189950 0.223983 0.955903
vn -0.313045 0.011474 0.949669
vn -0.752568 0.030483 0.657808
vn -0.359965 0.008979 0.932923
vn -0.765007 0.016993 0.643797
vn -0.985337 -0.000101 0.170617
vn -0.985337 -0.000101 0.170617
vn -0.501985 -0.685954 0.526762
vn -0.501985 -0.685954 0.526762
vn 0.897453 -0.055914 0.437552
vn 0.897453 -0.055914 0.437552
vn -0.995785 -0.018140 0.089902
vn -0.995785 -0.018140 0.089902
vn 0.755182 0.000129 0.655515
vn 0.755182 0.000129 0.655515
vn 0.202375 0.763662 0.613078
vn 0.202375 0.763662 0.613078
vn -0.985277 -0.000079 0.170966
vn -0.985277 -0.000079 0.170966
vn 0.867853 -0.035590 0.495544
vn 0.867853 -0.035590 0.495544
vn -0.992216 0.054545 0.111951
vn -0.992216 0.054545 0.111951
vn 0.865744 -0.028719 0.499662
vn 0.865744 -0.028719 0.499662
vn -0.997493 -0.070721 0.002472
vn -0.997493 -0.070721 0.002472
vn 0.842688 -0.085841 0.531515
vn 0.842688 -0.085841 0.531515
s 1
usemtl blinn1SG
f 48/47/60 47/48/61 49/49/62 50/50/63
f 52/51/64 51/52/65 53/53/66 54/54/67
f 55/55/68 56/56/69 48/47/60 50/50/63
f 57/57/70 58/58/71 56/56/69 55/55/68
f 51/52/65 58/58/71 57/57/70 53/53/66
f 59/59/72 60/60/73 47/48/61 48/47/60
f 60/60/74 61/61/75 49/49/62 47/48/61
f 61/61/76 62/62/77 50/50/63 49/49/62
f 63/63/78 64/64/79 51/52/65 52/51/64
f 65/65/80 66/66/81 54/54/67 53/53/66
f 66/66/82 63/63/83 52/51/64 54/54/67
f 67/67/84 59/59/85 48/47/60 56/56/69
f 62/62/86 68/68/87 55/55/68 50/50/63
f 69/69/88 67/67/89 56/56/69 58/58/71
f 68/68/90 70/70/91 57/57/70 55/55/68
f 64/64/92 69/69/93 58/58/71 51/52/65
f 70/70/94 65/65/95 53/53/66 57/57/70
v 1.524850 5.374287 -1.752833
v 1.880722 5.374287 -1.708846
v 1.858283 5.374287 -1.861392
v 1.830460 5.374287 -1.891563
v 1.542604 5.374287 -1.901818
v 1.573472 5.374287 -1.928249
v 1.481721 5.374287 -1.202643
v 1.458360 5.374287 -1.236349
v 1.962161 5.374287 -1.196388
v 1.937197 5.374287 -1.163624
v 1.878842 5.218578 -1.996669
v 1.517854 5.218578 -2.048841
v 1.486841 5.218578 -2.022621
v 1.462107 5.218578 -1.828121
v 1.937888 5.218578 -1.768583
v 1.906798 5.218578 -1.966656
v 1.371802 5.218578 -1.117893
v 1.395182 5.218578 -1.084199
v 2.023722 5.218578 -1.029687
v 2.048745 5.218578 -1.062388
vt 0.819110 0.254682
vt 0.699839 0.271177
vt 0.681681 0.077498
vt 0.687550 0.064858
vt 0.829700 0.050226
vt 0.836027 0.062512
vt 0.800933 0.323200
vt 0.829136 0.362614
vt 0.694802 0.382179
vt 0.718409 0.336957
vt 0.708730 0.327045
vt 0.679370 0.372346
vt 0.641698 0.299409
vt 0.877756 0.277083
vt 0.843073 0.351360
vt 0.809359 0.311886
vt 0.629274 0.033077
vt 0.644619 0.020442
vt 0.868851 0.000000
vt 0.885508 0.012263
vn 0.329565 0.942715 -0.051724
vn -0.358274 0.932503 -0.045576
vn -0.307811 0.950936 -0.031187
vn -0.033618 0.969511 0.242732
vn -0.008074 0.965063 0.261892
vn 0.323754 0.945206 -0.042069
vn 0.088182 0.914751 -0.394278
vn 0.172437 0.588216 -0.790106
vn 0.032404 0.604016 -0.796313
vn 0.026476 0.900818 -0.433389
vn -0.340720 0.937215 -0.074416
vn -0.811315 0.512008 -0.282163
vn -0.903340 0.414114 -0.111741
vn 0.912905 0.383640 -0.139372
vn 0.846051 0.454905 -0.277954
vn 0.332917 0.939863 -0.076318
vn -0.901847 0.416393 -0.115272
vn -0.885824 0.462007 -0.043189
vn -0.112625 0.641264 0.759010
vn -0.010477 0.647989 0.761578
vn 0.891384 0.449668 -0.056857
vn 0.911108 0.386282 -0.143768
s 1
usemtl blinn1SG
f 72/71/96 71/72/97 78/73/98 77/74/99 80/75/100 79/76/101
f 74/77/102 81/78/103 82/79/104 76/80/105
f 75/81/106 83/82/107 84/83/108 71/72/97
f 85/84/109 86/85/110 73/86/111 72/71/96
f 84/83/112 87/87/113 78/73/98 71/72/97
f 77/74/99 88/88/114 89/89/115 80/75/100
f 79/76/101 90/90/116 85/84/117 72/71/96
f 73/86/111 74/77/102 76/80/105 75/81/106 71/72/97 72/71/96
f 86/85/110 81/78/103 74/77/102 73/86/111
f 82/79/104 83/82/107 75/81/106 76/80/105
f 87/87/113 88/88/114 77/74/99 78/73/98
f 89/89/115 90/90/116 79/76/101 80/75/100
v -0.462696 4.348403 -3.664974
v -0.914355 4.348403 -3.229485
v -1.040454 4.192664 -1.611558
v -0.948142 4.192664 -1.519249
v -0.914355 4.348403 -1.753626
v -0.824025 4.348403 -1.659231
v -0.427062 4.422056 -3.670026
v -0.427062 8.016556 -3.670026
v -0.427062 7.649132 -3.468988
v -0.980081 4.192664 -3.135364
v -0.427062 5.315103 -3.670026
v -0.010951 8.016555 -3.670026
v -0.010951 7.649132 -3.468988
v -0.010951 5.315103 -3.670026
v -0.010951 4.422056 -3.670026
v -0.010951 4.192664 -3.804954
v -0.010951 4.348403 -3.664974
v -0.010951 4.348403 -1.659231
v -0.010951 4.192664 -1.519249
v -0.427062 5.704955 -3.592395
v -0.010951 5.704955 -3.592395
v -0.521583 6.877706 -3.468988
v -0.010951 7.145011 -3.425020
v -0.010951 6.512444 -3.476627
v -0.157532 6.892576 -3.464414
v -0.010951 6.647503 -3.493096
v -0.087702 6.891742 -3.475730
v -0.010951 7.026888 -3.475730
v -0.525750 4.192664 -3.804954
v -1.053610 4.192664 -3.374078
v -1.040454 3.904078 -1.611484
v -0.948220 3.904078 -1.519249
v -0.010951 3.904078 -1.519249
v -1.004858 3.910500 -3.110747
v -0.010951 8.133163 -3.804954
v -0.525750 8.133163 -3.804954
v -0.525750 5.205467 -3.804954
v -0.525750 7.722185 -3.804954
v -1.081081 3.911199 -3.273960
v -0.525750 5.631856 -3.804954
v -0.597699 6.877683 -3.804954
v -0.010951 6.838227 -3.490097
v -0.041755 6.856417 -3.483414
v -0.054408 6.890781 -3.475330
v -0.038985 6.917797 -3.475930
v -0.010951 6.932260 -3.477929
vt 0.303349 0.379912
vt 0.287872 0.415793
vt 0.209282 0.335502
vt 0.236965 0.310147
vt 0.187888 0.073051
vt 0.218532 0.019620
vt 0.223607 0.062500
vt 0.208577 0.088975
vt 0.244864 0.094690
vt 0.232309 0.110996
vt 0.370956 0.000000
vt 0.371339 0.051052
vt 0.216198 0.301524
vt 0.191761 0.291183
vt 0.369206 0.087070
vt 0.310387 0.455994
vt 0.374684 0.456068
vt 0.371692 0.597681
vt 0.307046 0.599155
vt 0.372683 0.414041
vt 0.368567 0.967061
vt 0.364854 0.997810
vt 0.286960 0.981917
vt 0.308104 0.958404
vt 0.280200 0.582002
vt 0.320081 0.903999
vt 0.373495 0.907313
vt 0.276934 0.918167
vt 0.191524 0.306873
vt 0.370510 0.656464
vt 0.312444 0.658732
vt 0.281009 0.646697
vt 0.370880 0.380831
vt 0.267420 0.812028
vt 0.310869 0.812527
vt 0.373370 0.764289
vt 0.356448 0.813493
vt 0.374260 0.844065
vt 0.374506 0.781976
vt 0.365104 0.813021
vt 0.375026 0.828533
vt 0.374920 0.806446
vt 0.370973 0.808570
vt 0.369144 0.812816
vt 0.371100 0.815743
vt 0.374517 0.817098
vn -0.027744 0.997613 -0.063234
vn -0.442419 0.744354 -0.500202
vn -0.442419 0.744354 -0.500202
vn -0.086268 0.995902 -0.027132
vn -0.998812 0.039558 0.028469
vn -0.707105 0.000186 0.707108
vn -0.655462 0.383652 0.650523
vn -0.978493 0.202414 0.039745
vn -0.005525 0.997378 0.072160
vn -0.119985 0.992772 0.002513
vn 0.000000 0.218709 0.975790
vn 0.000000 0.000000 1.000000
vn 0.000000 0.000000 1.000000
vn 0.000000 0.288370 0.957519
vn -0.962429 0.271395 0.008647
vn -0.998347 0.056252 0.011776
vn -0.000000 0.997244 0.074195
vn -0.298487 -0.111786 0.947845
vn 0.000000 -0.130166 0.991492
vn 0.000000 -0.060402 0.998174
vn -0.265473 -0.055965 0.962493
vn -0.369139 -0.348064 0.861736
vn 0.000000 -0.506997 0.861948
vn 0.000001 0.577270 0.816553
vn 0.000001 0.756604 0.653874
vn -0.544120 0.526801 0.653004
vn -0.362877 0.500894 0.785764
vn -0.817093 -0.009029 0.576435
vn -0.502927 0.171807 0.847081
vn -0.034824 0.177812 0.983448
vn -0.945748 0.102125 0.308435
vn -0.826257 0.502519 0.254507
vn -0.924599 0.162008 0.344776
vn -0.924599 0.162008 0.344776
vn -0.027346 -0.130791 0.991033
vn -0.472224 -0.130539 0.871759
vn -0.928728 -0.073454 0.363412
vn -0.000000 0.999104 -0.042316
vn -0.000000 0.668478 -0.743732
vn -0.000000 0.668478 -0.743732
vn -0.956869 -0.000586 0.290520
vn -0.533182 -0.043499 0.844882
vn -0.035950 -0.110292 0.993249
vn -0.042548 -0.058823 0.997361
vn -0.051543 0.013123 0.998585
vn 0.277892 0.053962 0.959095
vn 0.272754 0.050053 0.960781
vn 0.252736 0.034887 0.966906
vn 0.277892 0.053962 0.959095
vn 0.325898 -0.279583 0.903119
vn 0.291353 -0.247563 0.924027
vn 0.311298 -0.266042 0.912313
vn 0.325898 -0.279583 0.903119
vn 0.156581 -0.036559 0.986988
vn 0.156581 -0.036559 0.986988
vn 0.156581 -0.036559 0.986988
vn 0.029167 -0.006242 0.999555
vn 0.029167 -0.006242 0.999555
vn 0.029167 -0.006242 0.999555
s 1
usemtl blinn1SG
f 91/91/118 119/92/119 120/93/120 92/94/121
f 121/95/122 122/96/123 94/97/124 93/98/125
f 93/98/125 94/97/124 96/99/126 95/100/127
f 94/97/128 122/96/129 123/101/130 109/102/131
f 100/103/132 124/104/133 121/95/122 93/98/125
f 94/97/128 109/102/131 108/105/134 96/99/126
f 100/103/132 93/98/125 95/100/127 92/94/121
s 4
f 97/106/135 105/107/136 104/108/137 101/109/138
f 119/92/139 106/110/140 105/107/136 97/106/135
f 102/111/141 125/112/142 126/113/143 98/114/144
f 127/115/145 119/92/139 97/106/135 101/109/138
f 99/116/146 103/117/147 102/111/141 98/114/144
f 126/113/143 128/118/148 99/116/146 98/114/144
s 1
f 120/93/149 100/103/132 92/94/121
f 120/93/150 129/119/151 124/104/133 100/103/132
s 4
f 101/109/138 104/108/137 111/120/152 110/121/153
f 130/122/154 127/115/145 101/109/138 110/121/153
s 1
f 107/123/155 106/110/156 119/92/157 91/91/118
f 95/100/127 96/99/126 108/105/134 107/123/155 91/91/118 92/94/121
s 4
f 131/124/158 130/122/154 110/121/153 112/125/159
f 128/118/148 131/124/158 112/125/159 99/116/146
f 111/120/152 114/126/160 115/127/161 112/125/159 110/121/153
f 113/128/162 103/117/147 99/116/146 112/125/159 115/127/161
s 6
f 114/126/163 116/129/164 117/130/165 115/127/166
s 7
f 115/127/167 117/130/168 118/131/169 113/128/170
s 6
f 116/129/164 132/132/171 133/133/172 134/134/173 117/130/165
s 7
f 117/130/168 134/134/174 135/135/175 136/136/176 118/131/169
v -0.575798 5.342014 -3.490073
v -0.916551 5.205228 -3.232133
v -0.877763 4.511681 -3.226494
v -0.575703 4.527182 -3.490819
v -0.575970 7.816514 -3.488664
v -1.018508 7.490238 -3.240787
v -1.018512 7.144147 -3.240734
v -0.575933 7.480864 -3.488936
v -0.928388 5.525050 -3.233852
v -0.575827 5.698838 -3.489847
v -0.963230 6.543456 -3.233156
v -0.624221 6.774848 -3.496225
v -0.969130 5.153325 -3.331897
v -0.915001 4.401046 -3.331730
v -0.545562 4.417861 -3.665239
v -0.545562 5.301693 -3.664415
v -0.551636 7.952804 -3.662859
v -1.097853 7.552610 -3.332212
v -1.097853 7.252067 -3.332150
v -0.563766 7.621667 -3.663158
v -0.985643 5.500229 -3.331948
v -0.545562 5.688735 -3.664164
v -1.020736 6.600502 -3.332050
v -0.619813 6.855863 -3.663661
vt 0.200042 0.442536
vt 0.154146 0.427426
vt 0.161508 0.359447
vt 0.198837 0.359621
vt 0.194589 0.701248
vt 0.148164 0.669527
vt 0.146947 0.635368
vt 0.197755 0.670773
vt 0.153196 0.462130
vt 0.200023 0.480604
vt 0.151008 0.571697
vt 0.197415 0.596621
vt 0.141927 0.421147
vt 0.156367 0.346000
vt 0.215934 0.345450
vt 0.219092 0.438207
vt 0.201556 0.721134
vt 0.140153 0.679898
vt 0.134205 0.647169
vt 0.215552 0.686643
vt 0.140984 0.459414
vt 0.219001 0.479810
vt 0.138682 0.577711
vt 0.215427 0.605432
vn 0.779282 0.011490 0.626568
vn 0.426806 0.006606 0.904319
vn 0.331496 -0.118936 0.935930
vn 0.796475 -0.111363 0.594327
vn 0.431319 0.447856 0.783192
vn 0.189947 0.223986 0.955903
vn 0.317995 -0.014775 0.947977
vn 0.763059 -0.022926 0.645922
vn 0.313045 0.011476 0.949669
vn 0.752567 0.030483 0.657810
vn 0.359968 0.008977 0.932921
vn 0.765007 0.016989 0.643798
vn -0.897458 -0.055919 0.437540
vn -0.897458 -0.055919 0.437540
vn 0.501996 -0.685938 0.526773
vn 0.501996 -0.685938 0.526773
vn 0.985337 -0.000103 0.170622
vn 0.985337 -0.000103 0.170622
vn -0.202376 0.763663 0.613076
vn -0.202376 0.763664 0.613076
vn -0.755173 0.000122 0.655525
vn -0.755173 0.000122 0.655525
vn 0.995786 -0.018133 0.089898
vn 0.995786 -0.018133 0.089898
vn -0.867850 -0.035587 0.495551
vn -0.867850 -0.035587 0.495551
vn 0.985275 -0.000071 0.170978
vn 0.985275 -0.000071 0.170978
vn -0.865744 -0.028717 0.499662
vn -0.865744 -0.028717 0.499662
vn 0.992212 0.054543 0.111986
vn 0.992212 0.054543 0.111986
vn -0.842672 -0.085835 0.531541
vn -0.842672 -0.085835 0.531541
vn 0.997493 -0.070725 0.002478
vn 0.997493 -0.070725 0.002478
s 1
usemtl blinn1SG
f 137/137/177 138/138/178 139/139/179 140/140/180
f 141/141/181 142/142/182 143/143/183 144/144/184
f 145/145/185 138/138/178 137/137/177 146/146/186
f 147/147/187 145/145/185 146/146/186 148/148/188
f 144/144/184 143/143/183 147/147/187 148/148/188
f 149/149/189 150/150/190 139/139/179 138/138/178
f 150/150/191 151/151/192 140/140/180 139/139/179
f 151/151/193 152/152/194 137/137/177 140/140/180
f 153/153/195 154/154/196 142/142/182 141/141/181
f 154/154/197 155/155/198 143/143/183 142/142/182
f 156/156/199 153/153/200 141/141/181 144/144/184
f 157/157/201 149/149/202 138/138/178 145/145/185
f 152/152/203 158/158/204 146/146/186 137/137/177
f 159/159/205 157/157/206 145/145/185 147/147/187
f 158/158/207 160/160/208 148/148/188 146/146/186
f 155/155/209 159/159/210 147/147/187 143/143/183
f 160/160/211 156/156/212 144/144/184 148/148/188
v -1.546748 5.374287 -1.752833
v -1.902620 5.374287 -1.708846
v -1.880181 5.374287 -1.861392
v -1.852361 5.374287 -1.891563
v -1.564502 5.374287 -1.901818
v -1.595371 5.374287 -1.928249
v -1.503622 5.374287 -1.202643
v -1.480259 5.374287 -1.236349
v -1.984062 5.374287 -1.196388
v -1.959099 5.374287 -1.163624
v -1.539749 5.218578 -2.048841
v -1.900739 5.218578 -1.996669
v -1.484005 5.218578 -1.828121
v -1.508737 5.218578 -2.022621
v -1.928694 5.218578 -1.966656
v -1.959788 5.218578 -1.768583
v -1.393692 5.218578 -1.117893
v -2.045620 5.218578 -1.029687
v -1.417077 5.218578 -1.084199
v -2.070640 5.218578 -1.062388
vt 0.439190 0.254682
vt 0.422273 0.062512
vt 0.428598 0.050226
vt 0.570749 0.064858
vt 0.576618 0.077498
vt 0.558462 0.271177
vt 0.457370 0.323200
vt 0.539890 0.336957
vt 0.563499 0.382179
vt 0.429165 0.362614
vt 0.549570 0.327045
vt 0.616602 0.299409
vt 0.578931 0.372346
vt 0.380543 0.277083
vt 0.448938 0.311886
vt 0.415227 0.351359
vt 0.629028 0.033077
vt 0.389449 0.000000
vt 0.613682 0.020442
vt 0.372793 0.012263
vn -0.329565 0.942715 -0.051725
vn -0.323754 0.945206 -0.042070
vn 0.008074 0.965063 0.261892
vn 0.033617 0.969511 0.242731
vn 0.307812 0.950936 -0.031188
vn 0.358271 0.932505 -0.045578
vn -0.088185 0.914747 -0.394285
vn -0.026477 0.900817 -0.433392
vn -0.032403 0.604015 -0.796314
vn -0.172435 0.588213 -0.790109
vn 0.340723 0.937214 -0.074416
vn 0.903339 0.414117 -0.111737
vn 0.811311 0.512017 -0.282159
vn -0.912900 0.383648 -0.139382
vn -0.332909 0.939866 -0.076318
vn -0.846054 0.454904 -0.277948
vn 0.901838 0.416414 -0.115275
vn 0.885811 0.462032 -0.043186
vn 0.010480 0.647988 0.761579
vn 0.112627 0.641268 0.759007
vn -0.911113 0.386269 -0.143767
vn -0.891391 0.449653 -0.056859
s 1
usemtl blinn1SG
f 162/161/213 169/162/214 170/163/215 167/164/216 168/165/217 161/166/218
f 164/167/219 166/168/220 171/169/221 172/170/222
f 165/171/223 161/166/218 173/172/224 174/173/225
f 176/174/226 162/161/213 163/175/227 175/176/228
f 173/172/229 161/166/218 168/165/217 177/177/230
f 167/164/216 170/163/215 178/178/231 179/179/232
f 169/162/214 162/161/213 176/174/233 180/180/234
f 163/175/227 162/161/213 161/166/218 165/171/223 166/168/220 164/167/219
f 175/176/228 163/175/227 164/167/219 172/170/222
f 171/169/221 166/168/220 165/171/223 174/173/225
f 177/177/230 168/165/217 167/164/216 179/179/232
f 178/178/231 170/163/215 169/162/214 180/180/234
